<svg width="664" height="704" viewBox="0 0 664 704" fill="none" xmlns="http://www.w3.org/2000/svg">
<path opacity="0.5" fill-rule="evenodd" clip-rule="evenodd" d="M221.375 221.527C254.601 196.016 276.019 155.891 276.019 110.764C276.019 65.6362 254.601 25.5113 221.375 0C188.149 25.5113 166.73 65.6362 166.73 110.764C166.73 155.891 188.149 196.016 221.375 221.527Z" fill="url(#paint0_linear_2001_1190)"/>
<path opacity="0.5" fill-rule="evenodd" clip-rule="evenodd" d="M221.374 221.379C188.148 246.89 166.729 287.016 166.729 332.143C166.729 377.271 188.148 417.396 221.374 442.907C254.6 417.396 276.019 377.271 276.019 332.143C276.019 287.016 254.6 246.89 221.374 221.379Z" fill="url(#paint1_linear_2001_1190)"/>
<path opacity="0.5" fill-rule="evenodd" clip-rule="evenodd" d="M221.364 221.349C179.83 226.805 136.311 213.578 104.401 181.667C72.4908 149.757 59.2633 106.24 64.718 64.7068C106.252 59.251 149.771 72.4784 181.681 104.389C213.591 136.299 226.819 179.816 221.364 221.349Z" fill="url(#paint2_linear_2001_1190)"/>
<path opacity="0.5" fill-rule="evenodd" clip-rule="evenodd" d="M64.7223 377.22C106.255 382.674 149.773 369.447 181.683 337.537C213.592 305.628 226.819 262.111 221.365 220.579C179.832 215.124 136.315 228.352 104.405 260.261C72.4958 292.171 59.2682 335.687 64.7223 377.22Z" fill="url(#paint3_linear_2001_1190)"/>
<path opacity="0.5" fill-rule="evenodd" clip-rule="evenodd" d="M221.206 221.369C215.75 179.835 228.978 136.316 260.888 104.406C292.799 72.4952 336.317 59.2678 377.851 64.7234C383.307 106.258 370.08 149.776 338.169 181.687C306.259 213.597 262.74 226.825 221.206 221.369Z" fill="url(#paint4_linear_2001_1190)"/>
<path opacity="0.5" fill-rule="evenodd" clip-rule="evenodd" d="M221.206 220.575C215.749 262.11 228.976 305.63 260.887 337.542C292.798 369.452 336.316 382.68 377.85 377.224C383.307 335.689 370.08 292.169 338.168 260.258C306.258 228.347 262.739 215.12 221.206 220.575Z" fill="url(#paint5_linear_2001_1190)"/>
<path opacity="0.5" fill-rule="evenodd" clip-rule="evenodd" d="M442.902 221.367C417.391 188.141 377.266 166.722 332.138 166.722C287.011 166.722 246.886 188.141 221.375 221.366C246.886 254.592 287.011 276.011 332.139 276.011C377.266 276.011 417.391 254.592 442.902 221.367Z" fill="url(#paint6_linear_2001_1190)"/>
<path opacity="0.5" fill-rule="evenodd" clip-rule="evenodd" d="M221.529 221.377C196.018 254.603 155.892 276.022 110.764 276.022C65.6368 276.022 25.5117 254.603 0.000366211 221.377C25.5117 188.151 65.6369 166.732 110.765 166.732C155.892 166.732 196.017 188.151 221.529 221.377Z" fill="url(#paint7_linear_2001_1190)"/>
<path opacity="0.5" fill-rule="evenodd" clip-rule="evenodd" d="M221.375 481.898C254.601 456.386 276.019 416.261 276.019 371.134C276.019 326.006 254.601 285.881 221.375 260.37C188.149 285.881 166.73 326.006 166.73 371.134C166.73 416.261 188.149 456.386 221.375 481.898Z" fill="url(#paint8_linear_2001_1190)"/>
<path opacity="0.5" fill-rule="evenodd" clip-rule="evenodd" d="M221.374 481.75C188.148 507.262 166.729 547.387 166.729 592.514C166.729 637.642 188.148 677.767 221.374 703.278C254.6 677.767 276.019 637.642 276.019 592.514C276.019 547.387 254.6 507.262 221.374 481.75Z" fill="url(#paint9_linear_2001_1190)"/>
<path opacity="0.5" fill-rule="evenodd" clip-rule="evenodd" d="M221.364 481.719C179.83 487.175 136.311 473.948 104.401 442.037C72.4908 410.127 59.2633 366.61 64.7179 325.077C106.252 319.621 149.771 332.849 181.682 364.759C213.591 396.669 226.819 440.186 221.364 481.719Z" fill="url(#paint10_linear_2001_1190)"/>
<path opacity="0.5" fill-rule="evenodd" clip-rule="evenodd" d="M64.7223 637.59C106.255 643.045 149.773 629.818 181.683 597.908C213.592 565.999 226.819 522.483 221.366 480.95C179.832 475.496 136.315 488.723 104.405 520.633C72.4962 552.542 59.2685 596.058 64.7223 637.59Z" fill="url(#paint11_linear_2001_1190)"/>
<path opacity="0.5" fill-rule="evenodd" clip-rule="evenodd" d="M221.206 481.739C215.75 440.204 228.977 396.685 260.888 364.775C292.798 332.864 336.317 319.637 377.851 325.092C383.307 366.627 370.079 410.146 338.169 442.057C306.258 473.967 262.74 487.194 221.206 481.739Z" fill="url(#paint12_linear_2001_1190)"/>
<path opacity="0.5" fill-rule="evenodd" clip-rule="evenodd" d="M377.85 637.594C383.307 596.059 370.08 552.539 338.168 520.628C306.258 488.717 262.739 475.49 221.205 480.946C215.749 522.481 228.976 566.001 260.887 597.912C292.798 629.822 336.316 643.05 377.85 637.594Z" fill="url(#paint13_linear_2001_1190)"/>
<path opacity="0.5" fill-rule="evenodd" clip-rule="evenodd" d="M442.902 481.739C417.391 448.513 377.266 427.094 332.138 427.094C287.011 427.094 246.886 448.513 221.375 481.738C246.886 514.964 287.011 536.383 332.139 536.383C377.266 536.383 417.391 514.965 442.902 481.739Z" fill="url(#paint14_linear_2001_1190)"/>
<path opacity="0.5" fill-rule="evenodd" clip-rule="evenodd" d="M221.528 481.748C196.017 514.974 155.892 536.393 110.764 536.393C65.6363 536.393 25.5112 514.974 -0.00012207 481.748C25.5112 448.522 65.6364 427.104 110.764 427.104C155.892 427.104 196.017 448.522 221.528 481.748Z" fill="url(#paint15_linear_2001_1190)"/>
<path opacity="0.5" fill-rule="evenodd" clip-rule="evenodd" d="M442.145 345.276C475.371 319.765 496.789 279.64 496.789 234.513C496.789 189.385 475.371 149.26 442.145 123.749C408.919 149.26 387.5 189.385 387.5 234.513C387.5 279.64 408.919 319.765 442.145 345.276Z" fill="url(#paint16_linear_2001_1190)"/>
<path opacity="0.5" fill-rule="evenodd" clip-rule="evenodd" d="M442.144 345.129C408.918 370.64 387.499 410.765 387.499 455.893C387.499 501.021 408.918 541.146 442.144 566.657C475.37 541.146 496.788 501.021 496.788 455.893C496.788 410.765 475.37 370.64 442.144 345.129Z" fill="url(#paint17_linear_2001_1190)"/>
<path opacity="0.5" fill-rule="evenodd" clip-rule="evenodd" d="M285.488 188.456C327.022 183 370.541 196.227 402.451 228.138C434.361 260.048 447.589 303.565 442.134 345.098C400.6 350.554 357.081 337.327 325.171 305.416C293.261 273.506 280.033 229.989 285.488 188.456Z" fill="url(#paint18_linear_2001_1190)"/>
<path opacity="0.5" fill-rule="evenodd" clip-rule="evenodd" d="M442.136 344.327C400.602 338.872 357.085 352.1 325.175 384.009C293.266 415.919 280.038 459.435 285.493 500.968C327.026 506.422 370.543 493.195 402.453 461.285C434.362 429.376 447.59 385.859 442.136 344.327Z" fill="url(#paint19_linear_2001_1190)"/>
<path opacity="0.5" fill-rule="evenodd" clip-rule="evenodd" d="M598.621 188.471C604.077 230.006 590.849 273.524 558.939 305.435C527.028 337.346 483.51 350.573 441.976 345.117C436.52 303.583 449.747 260.064 481.658 228.154C513.568 196.243 557.087 183.016 598.621 188.471Z" fill="url(#paint20_linear_2001_1190)"/>
<path opacity="0.5" fill-rule="evenodd" clip-rule="evenodd" d="M598.62 500.973C604.077 459.438 590.85 415.918 558.938 384.007C527.028 352.096 483.509 338.869 441.975 344.324C436.519 385.859 449.746 429.379 481.657 461.291C513.568 493.201 557.086 506.429 598.62 500.973Z" fill="url(#paint21_linear_2001_1190)"/>
<path opacity="0.5" fill-rule="evenodd" clip-rule="evenodd" d="M663.673 345.117C638.161 311.891 598.036 290.472 552.909 290.472C507.781 290.472 467.656 311.891 442.145 345.116C467.656 378.342 507.781 399.761 552.909 399.761C598.036 399.761 638.161 378.342 663.673 345.117Z" fill="url(#paint22_linear_2001_1190)"/>
<path opacity="0.5" fill-rule="evenodd" clip-rule="evenodd" d="M442.299 345.126C416.787 378.352 376.662 399.771 331.534 399.771C286.407 399.771 246.281 378.352 220.77 345.126C246.281 311.9 286.407 290.481 331.534 290.481C376.662 290.481 416.787 311.9 442.299 345.126Z" fill="url(#paint23_linear_2001_1190)"/>
<defs>
<linearGradient id="paint0_linear_2001_1190" x1="306.291" y1="-28.7982" x2="306.291" y2="250.326" gradientUnits="userSpaceOnUse">
<stop stop-color="#103A39"/>
<stop offset="1" stop-color="#48B9AB"/>
</linearGradient>
<linearGradient id="paint1_linear_2001_1190" x1="136.457" y1="471.705" x2="136.457" y2="192.581" gradientUnits="userSpaceOnUse">
<stop stop-color="#103A39"/>
<stop offset="1" stop-color="#48B9AB"/>
</linearGradient>
<linearGradient id="paint2_linear_2001_1190" x1="104.401" y1="-15.7028" x2="301.772" y2="181.668" gradientUnits="userSpaceOnUse">
<stop stop-color="#103A39"/>
<stop offset="1" stop-color="#48B9AB"/>
</linearGradient>
<linearGradient id="paint3_linear_2001_1190" x1="104.403" y1="457.626" x2="301.771" y2="260.258" gradientUnits="userSpaceOnUse">
<stop stop-color="#103A39"/>
<stop offset="1" stop-color="#48B9AB"/>
</linearGradient>
<linearGradient id="paint4_linear_2001_1190" x1="458.262" y1="104.406" x2="260.889" y2="301.779" gradientUnits="userSpaceOnUse">
<stop stop-color="#103A39"/>
<stop offset="1" stop-color="#48B9AB"/>
</linearGradient>
<linearGradient id="paint5_linear_2001_1190" x1="458.263" y1="337.539" x2="260.889" y2="140.165" gradientUnits="userSpaceOnUse">
<stop stop-color="#103A39"/>
<stop offset="1" stop-color="#48B9AB"/>
</linearGradient>
<linearGradient id="paint6_linear_2001_1190" x1="192.577" y1="136.451" x2="471.7" y2="136.451" gradientUnits="userSpaceOnUse">
<stop stop-color="#103A39"/>
<stop offset="1" stop-color="#48B9AB"/>
</linearGradient>
<linearGradient id="paint7_linear_2001_1190" x1="250.327" y1="306.294" x2="-28.7979" y2="306.294" gradientUnits="userSpaceOnUse">
<stop stop-color="#103A39"/>
<stop offset="1" stop-color="#48B9AB"/>
</linearGradient>
<linearGradient id="paint8_linear_2001_1190" x1="306.291" y1="231.572" x2="306.291" y2="510.696" gradientUnits="userSpaceOnUse">
<stop stop-color="#103A39"/>
<stop offset="1" stop-color="#48B9AB"/>
</linearGradient>
<linearGradient id="paint9_linear_2001_1190" x1="136.457" y1="732.077" x2="136.457" y2="452.952" gradientUnits="userSpaceOnUse">
<stop stop-color="#103A39"/>
<stop offset="1" stop-color="#48B9AB"/>
</linearGradient>
<linearGradient id="paint10_linear_2001_1190" x1="104.401" y1="244.667" x2="301.772" y2="442.039" gradientUnits="userSpaceOnUse">
<stop stop-color="#103A39"/>
<stop offset="1" stop-color="#48B9AB"/>
</linearGradient>
<linearGradient id="paint11_linear_2001_1190" x1="104.403" y1="717.997" x2="301.77" y2="520.629" gradientUnits="userSpaceOnUse">
<stop stop-color="#103A39"/>
<stop offset="1" stop-color="#48B9AB"/>
</linearGradient>
<linearGradient id="paint12_linear_2001_1190" x1="458.261" y1="364.776" x2="260.889" y2="562.149" gradientUnits="userSpaceOnUse">
<stop stop-color="#103A39"/>
<stop offset="1" stop-color="#48B9AB"/>
</linearGradient>
<linearGradient id="paint13_linear_2001_1190" x1="458.263" y1="597.909" x2="260.888" y2="400.535" gradientUnits="userSpaceOnUse">
<stop stop-color="#103A39"/>
<stop offset="1" stop-color="#48B9AB"/>
</linearGradient>
<linearGradient id="paint14_linear_2001_1190" x1="192.576" y1="396.823" x2="471.7" y2="396.823" gradientUnits="userSpaceOnUse">
<stop stop-color="#103A39"/>
<stop offset="1" stop-color="#48B9AB"/>
</linearGradient>
<linearGradient id="paint15_linear_2001_1190" x1="250.327" y1="566.665" x2="-28.7984" y2="566.665" gradientUnits="userSpaceOnUse">
<stop stop-color="#103A39"/>
<stop offset="1" stop-color="#48B9AB"/>
</linearGradient>
<linearGradient id="paint16_linear_2001_1190" x1="527.061" y1="94.9509" x2="527.061" y2="374.075" gradientUnits="userSpaceOnUse">
<stop stop-color="#103A39"/>
<stop offset="1" stop-color="#48B9AB"/>
</linearGradient>
<linearGradient id="paint17_linear_2001_1190" x1="357.227" y1="595.455" x2="357.227" y2="316.331" gradientUnits="userSpaceOnUse">
<stop stop-color="#103A39"/>
<stop offset="1" stop-color="#48B9AB"/>
</linearGradient>
<linearGradient id="paint18_linear_2001_1190" x1="325.171" y1="108.046" x2="522.542" y2="305.418" gradientUnits="userSpaceOnUse">
<stop stop-color="#103A39"/>
<stop offset="1" stop-color="#48B9AB"/>
</linearGradient>
<linearGradient id="paint19_linear_2001_1190" x1="325.173" y1="581.375" x2="522.541" y2="384.006" gradientUnits="userSpaceOnUse">
<stop stop-color="#103A39"/>
<stop offset="1" stop-color="#48B9AB"/>
</linearGradient>
<linearGradient id="paint20_linear_2001_1190" x1="679.031" y1="228.155" x2="481.659" y2="425.527" gradientUnits="userSpaceOnUse">
<stop stop-color="#103A39"/>
<stop offset="1" stop-color="#48B9AB"/>
</linearGradient>
<linearGradient id="paint21_linear_2001_1190" x1="679.033" y1="461.288" x2="481.658" y2="263.914" gradientUnits="userSpaceOnUse">
<stop stop-color="#103A39"/>
<stop offset="1" stop-color="#48B9AB"/>
</linearGradient>
<linearGradient id="paint22_linear_2001_1190" x1="413.347" y1="260.201" x2="692.471" y2="260.201" gradientUnits="userSpaceOnUse">
<stop stop-color="#103A39"/>
<stop offset="1" stop-color="#48B9AB"/>
</linearGradient>
<linearGradient id="paint23_linear_2001_1190" x1="471.097" y1="430.043" x2="191.972" y2="430.043" gradientUnits="userSpaceOnUse">
<stop stop-color="#103A39"/>
<stop offset="1" stop-color="#48B9AB"/>
</linearGradient>
</defs>
</svg>
